<?xml version="1.0" encoding="utf-8"?>
<!-- Designed by Vexels.com - 2016 All Rights Reserved - https://vexels.com/terms-and-conditions/  -->

<svg version="1.1" id="Capa_1" xmlns="http://www.w3.org/2000/svg" xmlns:xlink="http://www.w3.org/1999/xlink" x="0px" y="0px"
	 width="1200px" height="1200px" viewBox="0 0 1200 1200" enable-background="new 0 0 1200 1200" xml:space="preserve">
<path d="M1131.211,1052.213c6.789,0,13.063-3.668,16.391-9.609c3.328-5.932,3.188-13.188-0.367-18.984L615.992,156.758
	c-0.445-0.717-0.93-1.39-1.43-2.029c-0.023-0.034-0.055-0.067-0.078-0.09c-0.664-0.796-1.406-1.525-2.18-2.198
	c-0.203-0.179-0.398-0.336-0.602-0.504c-0.828-0.673-1.695-1.278-2.625-1.783c-0.102-0.056-0.227-0.101-0.336-0.18
	c-0.875-0.448-1.773-0.818-2.711-1.144c-0.242-0.09-0.484-0.168-0.719-0.236c-1.07-0.314-2.141-0.549-3.258-0.684
	c-0.055,0-0.109-0.022-0.18-0.034c-0.117-0.011-0.234,0.011-0.367,0c-0.5-0.034-1.023-0.101-1.547-0.101
	c-0.508,0-1.008,0.067-1.516,0.101c-0.18,0.011-0.359,0.011-0.547,0.034c-1.102,0.134-2.156,0.348-3.211,0.662
	c-0.188,0.056-0.367,0.134-0.578,0.202c-0.969,0.314-1.906,0.695-2.805,1.166c-0.086,0.056-0.172,0.09-0.25,0.135
	c-0.961,0.527-1.883,1.144-2.758,1.816c-0.141,0.124-0.281,0.247-0.414,0.348c-0.773,0.673-1.516,1.379-2.188,2.164
	c-0.055,0.067-0.141,0.134-0.195,0.202c-0.555,0.695-1.078,1.391-1.555,2.164L52.703,1023.631c-0.102,0.168-0.172,0.336-0.258,0.527
	c-0.156,0.234-0.281,0.516-0.414,0.773c-0.406,0.795-0.75,1.613-1.031,2.434c-0.055,0.213-0.156,0.391-0.211,0.605
	c-0.305,1.008-0.531,2.051-0.664,3.094c-0.023,0.246-0.031,0.494-0.055,0.752c-0.078,0.863-0.094,1.727-0.047,2.611
	c0.008,0.248,0.008,0.494,0.031,0.74c0.094,1.043,0.273,2.074,0.539,3.084c0.07,0.27,0.172,0.504,0.234,0.773
	c0.258,0.797,0.57,1.615,0.93,2.389c0.148,0.258,0.25,0.549,0.398,0.797c0.063,0.145,0.109,0.279,0.195,0.402
	c0.477,0.842,1,1.627,1.57,2.344c0.047,0.068,0.07,0.123,0.117,0.191c0.078,0.1,0.18,0.168,0.266,0.258
	c0.813,0.975,1.703,1.883,2.68,2.668c0.07,0.057,0.125,0.123,0.203,0.18c0.977,0.762,2.039,1.391,3.148,1.939
	c0.219,0.113,0.43,0.248,0.656,0.326c1.086,0.492,2.203,0.875,3.383,1.166c0.227,0.045,0.461,0.09,0.688,0.145
	c1.211,0.236,2.43,0.393,3.688,0.393h1062.461V1052.213z M745.18,439.503l-160.398,60.281L613,223.812L745.18,439.503z
	 M553.852,546.127l215.883,246.931l-339.336-50.223l-21.805-209.009L553.852,546.127z M594.992,536.092l162.391-61.032
	l35.82,287.758L594.992,536.092z M785.953,833.447l-109.125,169.932L465.43,786.006L785.953,833.447z M802.469,532.975
	l259.766,423.894L836.719,808.195L802.469,532.975z M546.195,507.757l-126.703-10.731L572.883,246.72L546.195,507.757z M393.477,751
	L140.469,952.338l234.133-382.08L393.477,751z M411.617,784.594l223.742,230.055H122.5L411.617,784.594z M823.516,844.492
	l258.094,170.156H714.242L823.516,844.492z"/>
</svg>
